<svg width="713" height="649" viewBox="0 0 713 649" fill="none" xmlns="http://www.w3.org/2000/svg">
<path fill-rule="evenodd" clip-rule="evenodd" d="M159.593 351.455C247.616 351.455 318.973 281.044 318.973 194.188C318.973 166.41 311.674 140.313 298.865 117.664H298.81L298.898 117.806L269.538 148.137L257.126 136.085L289.433 102.961L289.548 103.12V102.843L289.433 102.961C285.839 97.99 281.96 93.2345 277.819 88.7174L277.819 88.7169H277.818L277.819 88.7174L66.9191 305.913L67.0037 305.999L62.4955 310.469L58.6733 314.405L58.5989 314.333L57.7556 315.169C61.5049 318.245 65.3994 321.155 69.4276 323.887L69.2266 324.094H69.7336L69.5853 323.994L69.4276 323.887L110.892 281.184L123.304 293.236L84.6663 333.028L84.5191 332.95L84.3724 332.873V333.33L84.6663 333.028C107.002 344.788 132.508 351.455 159.593 351.455ZM265.452 76.6193L265.488 76.6512V76.5818L265.452 76.6193ZM234.52 55.349C212.184 43.5885 186.678 36.9221 159.593 36.9221C71.5698 36.9221 0.212891 107.333 0.212891 194.188C0.212891 221.876 7.46406 247.892 20.1948 270.49H20.2773L59.6497 229.942L72.0615 241.994L29.9221 285.391V285.649C34.4585 291.9 39.4476 297.809 44.8421 303.33L54.6819 293.573L54.7353 293.627L265.452 76.6193C260.496 72.2721 255.264 68.2253 249.785 64.5079H249.741L218.294 96.8939L205.882 84.8419L234.52 55.349ZM234.54 55.328L234.52 55.349C234.527 55.3526 234.533 55.3562 234.54 55.3598V55.328ZM238.37 51.384H238.43L238.399 51.3541L238.37 51.384ZM72.0621 219.739L93.106 198.066L105.518 210.118L84.4739 231.79L72.0621 219.739ZM144.348 249.31L123.305 270.982L135.716 283.034L156.76 261.362L144.348 249.31ZM105.517 186.014L126.561 164.342L138.973 176.394L117.929 198.066L105.517 186.014ZM177.803 215.585L156.76 237.257L169.171 249.309L190.215 227.637L177.803 215.585ZM138.973 152.29L160.017 130.618L172.429 142.67L151.385 164.342L138.973 152.29ZM211.258 181.861L190.214 203.533L202.626 215.585L223.67 193.913L211.258 181.861ZM172.428 118.566L193.472 96.8941L205.884 108.946L184.84 130.618L172.428 118.566ZM244.715 148.137L223.671 169.809L236.083 181.861L257.127 160.189L244.715 148.137Z" fill="white"/>
<rect x="313.625" y="415.294" width="302.946" height="179.494" transform="rotate(-55.8704 313.625 415.294)" fill="white"/>
<rect x="223.635" y="547.579" width="302.946" height="179.494" rx="58" transform="rotate(-55.8704 223.635 547.579)" fill="white"/>
<rect x="671.318" y="96.6421" width="134.225" height="73.0039" transform="rotate(121.806 671.318 96.6421)" fill="white"/>
<rect x="705.703" y="41.3997" width="123.214" height="73.0039" rx="36.502" transform="rotate(121.806 705.703 41.3997)" fill="white"/>
</svg>
