<svg width="364" height="359" viewBox="0 0 364 359" fill="none" xmlns="http://www.w3.org/2000/svg">
<path fill-rule="evenodd" clip-rule="evenodd" d="M181.531 358.23C281.771 358.23 363.031 278.048 363.031 179.138C363.031 147.504 354.72 117.785 340.133 91.9927H340.068L340.168 92.1543L306.734 126.695L292.6 112.971L329.39 75.248L329.525 75.436V75.1089L329.39 75.248C325.298 69.5876 320.88 64.1721 316.164 59.0281L75.9961 306.367L76.0938 306.466L70.8867 311.629L66.6045 316.039L66.5215 315.958L65.5615 316.91C69.8311 320.413 74.2646 323.726 78.8516 326.837L78.623 327.073H79.2002L78.8516 326.837L126.07 278.208L140.205 291.933L96.2051 337.246L95.8721 337.07V337.589L96.2051 337.246C121.641 350.639 150.688 358.23 181.531 358.23ZM302.081 45.251L302.127 45.2913V45.2036L302.081 45.251ZM266.857 21.0298C241.422 7.63672 212.375 0.045166 181.531 0.045166C81.292 0.045166 0.03125 80.2278 0.03125 179.138C0.03125 210.668 8.28906 240.295 22.7861 266.028H22.8789L67.7158 219.853L81.8506 233.578L33.8652 282.995V283.294C39.0312 290.412 44.7119 297.141 50.8555 303.427L62.0615 292.315L62.1211 292.375L302.081 45.251C296.438 40.3008 290.48 35.6926 284.241 31.4595H284.191L248.38 68.3403L234.245 54.6157L266.857 21.0298ZM266.886 21.0007L266.857 21.0298C266.867 21.0347 266.876 21.0398 266.886 21.0447V21.0007ZM271.242 16.5142H271.311L271.275 16.4802L271.242 16.5142ZM81.8506 208.234L105.815 183.554L119.949 197.279L95.9854 221.958L81.8506 208.234ZM164.17 241.909L140.205 266.589L154.34 280.313L178.304 255.634L164.17 241.909ZM119.949 169.829L143.914 145.149L158.048 158.874L134.084 183.554L119.949 169.829ZM202.269 203.504L178.304 228.184L192.438 241.909L216.402 217.229L202.269 203.504ZM158.048 131.425L182.013 106.745L196.146 120.469L172.183 145.149L158.048 131.425ZM240.367 165.1L216.402 189.78L230.537 203.504L254.501 178.824L240.367 165.1ZM196.146 93.0203L220.111 68.3403L234.245 82.0649L210.281 106.745L196.146 93.0203ZM278.466 126.695L254.501 151.375L268.636 165.1L292.6 140.42L278.466 126.695Z" fill="white"/>
</svg>
